<svg xmlns="http://www.w3.org/2000/svg" version="1.1" xmlns:xlink="http://www.w3.org/1999/xlink" xmlns:svgjs="http://svgjs.com/svgjs" width="512" height="512" x="0" y="0" viewBox="0 0 256 256" style="enable-background:new 0 0 512 512" xml:space="preserve" class=""><g><path fill="#72c2e9" d="M193.315 116.142 93.053 216.405l-.663-15.77a1.455 1.455 0 0 0-1.392-1.392l-14.424-.598a1.453 1.453 0 0 1-1.392-1.392l-.607-14.435a1.453 1.453 0 0 0-1.391-1.391l-14.435-.607a1.455 1.455 0 0 1-1.392-1.392l-.598-14.424a1.453 1.453 0 0 0-1.392-1.392l-15.771-.663L139.858 62.685z" data-original="#72c2e9" class=""></path><path fill="#fc5d3d" d="m244.467 64.99-31.869 31.869-53.457-53.457 31.869-31.869c5.675-5.675 14.886-5.675 20.561 0l32.897 32.897c5.674 5.674 5.674 14.885-.001 20.56z" data-original="#fc5d3d"></path><path fill="#f0c020" d="m139.836 62.698 19.281-19.28 53.45 53.449-19.281 19.28z" data-original="#f0c020" class=""></path><path fill="#0a5078" d="m42.525 237.592-25.147 10.544c-6.001 2.516-12.031-3.514-9.515-9.515l10.544-25.147z" data-original="#0a5078"></path><path fill="#4c4944" d="M18.408 213.475 7.863 238.622c-2.516 6 3.514 12.031 9.515 9.515l25.147-10.545z" data-original="#4c4944"></path><path fill="#f0c8a0" d="m93.053 216.405-50.527 21.187-24.117-24.117 21.187-50.527 15.771.663c.755.032 1.36.637 1.392 1.392l.598 14.424a1.453 1.453 0 0 0 1.392 1.392l14.435.607c.755.032 1.36.637 1.391 1.391l.607 14.435c.032.755.637 1.36 1.392 1.392l14.424.598a1.453 1.453 0 0 1 1.392 1.392z" data-original="#f0c8a0"></path><path d="M192.86 180.112c-3.729-1.228-6.641-2.022-8.591-10.421-.635-2.737-4.548-2.73-5.181 0-1.907 8.213-4.566 9.092-8.591 10.422-2.424.801-2.43 4.248 0 5.051 6.686 2.209 7.444 5.476 8.591 10.421.637 2.743 4.545 2.742 5.182 0 1.905-8.212 4.709-9.139 8.591-10.421 2.423-.802 2.429-4.249-.001-5.052z" fill="#000000" data-original="#000000" class=""></path><path fill="#f0c020" d="M185.67 182.662c-1.48 1.03-2.8 2.42-3.94 4.44-.94-1.59-2.25-3.09-4.16-4.4 1.55-1.07 2.93-2.51 4.12-4.64 1.2 2.16 2.56 3.59 3.98 4.6z" data-original="#f0c020" class=""></path><path d="M84.541 71.793c-3.729-1.228-6.641-2.022-8.591-10.421-.635-2.737-4.548-2.73-5.181 0-1.907 8.213-4.566 9.092-8.591 10.422-2.424.801-2.43 4.248 0 5.051 6.686 2.209 7.444 5.476 8.591 10.421.637 2.743 4.545 2.742 5.182 0 1.905-8.212 4.709-9.139 8.591-10.421 2.423-.802 2.429-4.249-.001-5.052z" fill="#000000" data-original="#000000" class=""></path><path fill="#f0c020" d="M77.351 74.343c-1.48 1.03-2.8 2.42-3.94 4.44-.94-1.59-2.25-3.09-4.16-4.4 1.55-1.07 2.93-2.51 4.12-4.64 1.2 2.16 2.56 3.59 3.98 4.6z" data-original="#f0c020" class=""></path><path fill="#c5e5fe" d="M101.34 196.47a2.498 2.498 0 0 1-1.768-4.267l2.121-2.121a2.498 2.498 0 0 1 3.535 0 2.498 2.498 0 0 1 0 3.535l-2.121 2.121a2.489 2.489 0 0 1-1.767.732zm9.193-9.193a2.498 2.498 0 0 1-1.768-4.267l75.708-75.709a2.498 2.498 0 0 1 3.535 0 2.498 2.498 0 0 1 0 3.535L112.3 186.545a2.49 2.49 0 0 1-1.767.732z" data-original="#c5e5fe" class=""></path><path fill="#ffcbc3" d="M205.527 92.288a2.498 2.498 0 0 1-1.768-4.267l22.676-22.677a2.498 2.498 0 0 1 3.535 0 2.498 2.498 0 0 1 0 3.535l-22.676 22.677a2.489 2.489 0 0 1-1.767.732zm29.747-29.748a2.498 2.498 0 0 1-1.768-4.267l2.121-2.121a2.498 2.498 0 0 1 3.535 0 2.498 2.498 0 0 1 0 3.535l-2.121 2.121a2.489 2.489 0 0 1-1.767.732z" data-original="#ffcbc3" class=""></path><path fill="#f8e5b0" d="M186.244 111.571a2.498 2.498 0 0 1-1.768-4.267l19.284-19.283a2.498 2.498 0 0 1 3.535 0 2.498 2.498 0 0 1 0 3.535l-19.284 19.283a2.492 2.492 0 0 1-1.767.732z" data-original="#f8e5b0"></path><path d="M104.34 155.189a2.498 2.498 0 0 0 0-3.529c-.95-.95-2.59-.95-3.53 0a2.472 2.472 0 0 0 0 3.529 2.47 2.47 0 0 0 3.53 0zM228.96 28.92a2.509 2.509 0 0 0 0-3.54c-.95-.94-2.59-.94-3.54.01-.97.97-.97 2.561 0 3.53a2.511 2.511 0 0 0 3.54 0zM27.54 191.71a2.508 2.508 0 0 0 3.27-1.34 2.505 2.505 0 0 0-1.34-3.271c-1.25-.53-2.76.101-3.27 1.33-.516 1.232.012 2.725 1.34 3.281z" fill="#000000" data-original="#000000" class=""></path><path d="M22.33 197.66a141469.4 141469.4 0 0 0-16.772 39.995c-3.381 8.065 4.713 16.173 12.787 12.787l75.648-31.721.002-.001a2.77 2.77 0 0 0 .826-.549l151.41-151.412a17.023 17.023 0 0 0 0-24.1l-10.2-10.21c-.94-.94-2.59-.94-3.54.01-.97.97-.97 2.56.01 3.53l10.2 10.21c4.706 4.705 4.688 12.333 0 17.02l-30.098 30.108-49.924-49.925L192.78 13.3c4.698-4.697 12.323-4.696 17.02 0l8.55 8.55c.95.94 2.59.94 3.54 0a2.509 2.509 0 0 0 0-3.54l-8.55-8.54c-6.65-6.649-17.436-6.663-24.1 0C176.198 22.807 51.881 147.127 37.828 161.18a2.634 2.634 0 0 0-.55.829L30.06 179.21c-.53 1.27.07 2.74 1.34 3.27 1.25.53 2.75-.1 3.28-1.33v-.02l6.55-15.61 13.07.55.56 13.461a3.912 3.912 0 0 0 3.78 3.779l13.48.57.56 13.479a3.936 3.936 0 0 0 3.79 3.78l13.46.561.55 13.069-47.37 19.87-21.75-21.75 5.58-13.3a2.505 2.505 0 0 0-1.34-3.271c-1.25-.528-2.75.102-3.27 1.342zM159.141 46.937l49.921 49.923-15.748 15.748-49.921-49.923zM77.64 196.189l-.57-13.479c-.003-.076-.023-.146-.03-.22l20.23-20.23a2.496 2.496 0 0 0 0-3.53c-.95-.949-2.59-.939-3.54 0l-20.222 20.231c-.077-.008-.15-.028-.229-.031l-13.47-.57-.56-13.46a3.93 3.93 0 0 0-3.78-3.79l-10.08-.421 94.468-94.468 23.191 23.191-55.178 55.178c-.97.97-.97 2.56 0 3.53a2.488 2.488 0 0 0 3.54 0l55.174-55.174 23.196 23.197-94.468 94.467-.422-10.08a3.945 3.945 0 0 0-3.79-3.79zm-39.514 40.537-21.715 9.105c-3.94 1.659-7.903-2.284-6.242-6.242l9.105-21.714z" fill="#000000" data-original="#000000" class=""></path></g></svg>